<mxfile host="Electron" agent="Mozilla/5.0 (X11; Linux x86_64) AppleWebKit/537.36 (KHTML, like Gecko) draw.io/24.7.17 Chrome/130.0.6723.59 Electron/33.0.2 Safari/537.36" version="24.7.17">
  <diagram name="Page-1" id="lG6WEHB_7xRlGKPb3DmZ">
    <mxGraphModel dx="1999" dy="1221" grid="1" gridSize="10" guides="1" tooltips="1" connect="1" arrows="1" fold="1" page="1" pageScale="1" pageWidth="850" pageHeight="1100" math="0" shadow="0">
      <root>
        <mxCell id="0" />
        <mxCell id="1" parent="0" />
        <mxCell id="mxJHPH-Ib5QceBobgP4E-2" value="" style="whiteSpace=wrap;html=1;fillColor=#FFFFFF;" vertex="1" parent="1">
          <mxGeometry x="550" y="310" width="790" height="350" as="geometry" />
        </mxCell>
        <mxCell id="mxJHPH-Ib5QceBobgP4E-6" value="" style="whiteSpace=wrap;html=1;fillColor=#686570;" vertex="1" parent="1">
          <mxGeometry x="960" y="420" width="320" height="220" as="geometry" />
        </mxCell>
        <mxCell id="mxJHPH-Ib5QceBobgP4E-7" value="" style="whiteSpace=wrap;html=1;strokeColor=#575757;fillColor=#686570;" vertex="1" parent="1">
          <mxGeometry x="590" y="420" width="310" height="220" as="geometry" />
        </mxCell>
        <mxCell id="mxJHPH-Ib5QceBobgP4E-1" value="" style="whiteSpace=wrap;html=1;fillColor=#FFFFFF;" vertex="1" parent="1">
          <mxGeometry x="-20" y="10" width="530" height="852" as="geometry" />
        </mxCell>
        <mxCell id="42OGbhjtQh606L3HK4yZ-1" style="edgeStyle=orthogonalEdgeStyle;rounded=0;orthogonalLoop=1;jettySize=auto;html=1;entryX=0;entryY=0.25;entryDx=0;entryDy=0;strokeColor=#000000;" parent="1" source="42OGbhjtQh606L3HK4yZ-2" target="42OGbhjtQh606L3HK4yZ-5" edge="1">
          <mxGeometry relative="1" as="geometry">
            <mxPoint x="330" y="180" as="targetPoint" />
            <Array as="points">
              <mxPoint x="310" y="130" />
              <mxPoint x="310" y="170" />
              <mxPoint x="360" y="170" />
            </Array>
          </mxGeometry>
        </mxCell>
        <mxCell id="42OGbhjtQh606L3HK4yZ-2" value="User&amp;nbsp; Logs into Roblox and selects our instance" style="rounded=0;whiteSpace=wrap;html=1;" parent="1" vertex="1">
          <mxGeometry x="160" y="100" width="120" height="60" as="geometry" />
        </mxCell>
        <mxCell id="42OGbhjtQh606L3HK4yZ-3" style="edgeStyle=orthogonalEdgeStyle;rounded=0;orthogonalLoop=1;jettySize=auto;html=1;entryX=1;entryY=0.25;entryDx=0;entryDy=0;strokeColor=#000000;" parent="1" source="42OGbhjtQh606L3HK4yZ-5" target="42OGbhjtQh606L3HK4yZ-7" edge="1">
          <mxGeometry relative="1" as="geometry">
            <mxPoint x="300" y="210" as="targetPoint" />
            <Array as="points">
              <mxPoint x="330" y="200" />
              <mxPoint x="330" y="200" />
            </Array>
          </mxGeometry>
        </mxCell>
        <mxCell id="42OGbhjtQh606L3HK4yZ-4" style="edgeStyle=orthogonalEdgeStyle;rounded=0;orthogonalLoop=1;jettySize=auto;html=1;entryX=1;entryY=0.25;entryDx=0;entryDy=0;strokeColor=#000000;" parent="1" source="42OGbhjtQh606L3HK4yZ-5" target="42OGbhjtQh606L3HK4yZ-25" edge="1">
          <mxGeometry relative="1" as="geometry">
            <Array as="points">
              <mxPoint x="300" y="200" />
              <mxPoint x="300" y="270" />
            </Array>
          </mxGeometry>
        </mxCell>
        <mxCell id="42OGbhjtQh606L3HK4yZ-5" value="Server responds with the initial user gui i.e. the title screen" style="rounded=0;whiteSpace=wrap;html=1;" parent="1" vertex="1">
          <mxGeometry x="360" y="160" width="120" height="60" as="geometry" />
        </mxCell>
        <mxCell id="42OGbhjtQh606L3HK4yZ-6" style="edgeStyle=orthogonalEdgeStyle;rounded=0;orthogonalLoop=1;jettySize=auto;html=1;exitX=1;exitY=0.75;exitDx=0;exitDy=0;strokeColor=#000000;" parent="1" source="42OGbhjtQh606L3HK4yZ-7" target="42OGbhjtQh606L3HK4yZ-10" edge="1">
          <mxGeometry relative="1" as="geometry">
            <mxPoint x="330" y="270" as="targetPoint" />
            <Array as="points">
              <mxPoint x="320" y="230" />
              <mxPoint x="320" y="290" />
            </Array>
          </mxGeometry>
        </mxCell>
        <mxCell id="42OGbhjtQh606L3HK4yZ-7" value="The user selects begin (or other similar continuation dialog)" style="rounded=0;whiteSpace=wrap;html=1;" parent="1" vertex="1">
          <mxGeometry x="160" y="185" width="120" height="60" as="geometry" />
        </mxCell>
        <mxCell id="42OGbhjtQh606L3HK4yZ-8" style="edgeStyle=orthogonalEdgeStyle;rounded=0;orthogonalLoop=1;jettySize=auto;html=1;strokeColor=#000000;" parent="1" source="42OGbhjtQh606L3HK4yZ-10" target="42OGbhjtQh606L3HK4yZ-12" edge="1">
          <mxGeometry relative="1" as="geometry">
            <mxPoint x="280" y="380" as="targetPoint" />
            <Array as="points">
              <mxPoint x="310" y="330" />
              <mxPoint x="310" y="460" />
            </Array>
          </mxGeometry>
        </mxCell>
        <mxCell id="42OGbhjtQh606L3HK4yZ-9" style="edgeStyle=orthogonalEdgeStyle;rounded=0;orthogonalLoop=1;jettySize=auto;html=1;entryX=1;entryY=0.75;entryDx=0;entryDy=0;strokeColor=#000000;" parent="1" source="42OGbhjtQh606L3HK4yZ-10" target="42OGbhjtQh606L3HK4yZ-27" edge="1">
          <mxGeometry relative="1" as="geometry">
            <Array as="points">
              <mxPoint x="310" y="330" />
              <mxPoint x="310" y="415" />
            </Array>
          </mxGeometry>
        </mxCell>
        <mxCell id="42OGbhjtQh606L3HK4yZ-10" value="The server responds with the role selection gui" style="rounded=0;whiteSpace=wrap;html=1;" parent="1" vertex="1">
          <mxGeometry x="360" y="280" width="120" height="60" as="geometry" />
        </mxCell>
        <mxCell id="42OGbhjtQh606L3HK4yZ-11" style="edgeStyle=orthogonalEdgeStyle;rounded=0;orthogonalLoop=1;jettySize=auto;html=1;exitX=1;exitY=0.75;exitDx=0;exitDy=0;strokeColor=#000000;" parent="1" source="42OGbhjtQh606L3HK4yZ-12" target="42OGbhjtQh606L3HK4yZ-14" edge="1">
          <mxGeometry relative="1" as="geometry">
            <mxPoint x="350" y="420" as="targetPoint" />
            <Array as="points">
              <mxPoint x="330" y="485" />
              <mxPoint x="330" y="420" />
            </Array>
          </mxGeometry>
        </mxCell>
        <mxCell id="42OGbhjtQh606L3HK4yZ-12" value="The User selects a role" style="rounded=0;whiteSpace=wrap;html=1;" parent="1" vertex="1">
          <mxGeometry x="160" y="440" width="120" height="60" as="geometry" />
        </mxCell>
        <mxCell id="42OGbhjtQh606L3HK4yZ-13" style="edgeStyle=orthogonalEdgeStyle;rounded=0;orthogonalLoop=1;jettySize=auto;html=1;entryX=0.5;entryY=0;entryDx=0;entryDy=0;strokeColor=#000000;" parent="1" source="42OGbhjtQh606L3HK4yZ-14" target="42OGbhjtQh606L3HK4yZ-18" edge="1">
          <mxGeometry relative="1" as="geometry" />
        </mxCell>
        <mxCell id="42OGbhjtQh606L3HK4yZ-14" value="&lt;div&gt;The server moves the user to their selected role&#39;s position, and changes the ui accordingly&lt;/div&gt;&lt;div&gt;&lt;br&gt;&lt;/div&gt;" style="rounded=0;whiteSpace=wrap;html=1;" parent="1" vertex="1">
          <mxGeometry x="360" y="400" width="120" height="110" as="geometry" />
        </mxCell>
        <mxCell id="42OGbhjtQh606L3HK4yZ-15" style="edgeStyle=orthogonalEdgeStyle;rounded=0;orthogonalLoop=1;jettySize=auto;html=1;exitX=0;exitY=0.5;exitDx=0;exitDy=0;entryX=1;entryY=0.25;entryDx=0;entryDy=0;strokeColor=#000000;" parent="1" source="42OGbhjtQh606L3HK4yZ-18" target="42OGbhjtQh606L3HK4yZ-20" edge="1">
          <mxGeometry relative="1" as="geometry">
            <Array as="points">
              <mxPoint x="360" y="580" />
              <mxPoint x="315" y="580" />
              <mxPoint x="315" y="665" />
            </Array>
          </mxGeometry>
        </mxCell>
        <mxCell id="42OGbhjtQh606L3HK4yZ-16" style="edgeStyle=orthogonalEdgeStyle;rounded=0;orthogonalLoop=1;jettySize=auto;html=1;exitX=0;exitY=0.5;exitDx=0;exitDy=0;entryX=0.992;entryY=0.838;entryDx=0;entryDy=0;entryPerimeter=0;strokeColor=#000000;" parent="1" source="42OGbhjtQh606L3HK4yZ-18" target="42OGbhjtQh606L3HK4yZ-22" edge="1">
          <mxGeometry relative="1" as="geometry">
            <Array as="points">
              <mxPoint x="360" y="580" />
              <mxPoint x="315" y="580" />
              <mxPoint x="315" y="800" />
            </Array>
          </mxGeometry>
        </mxCell>
        <mxCell id="42OGbhjtQh606L3HK4yZ-17" style="edgeStyle=orthogonalEdgeStyle;rounded=0;orthogonalLoop=1;jettySize=auto;html=1;strokeColor=#000000;" parent="1" source="42OGbhjtQh606L3HK4yZ-18" target="42OGbhjtQh606L3HK4yZ-29" edge="1">
          <mxGeometry relative="1" as="geometry">
            <Array as="points">
              <mxPoint x="315" y="580" />
              <mxPoint x="315" y="580" />
            </Array>
          </mxGeometry>
        </mxCell>
        <mxCell id="42OGbhjtQh606L3HK4yZ-18" value="The server presents the user with a simulated pilot and a relevant situation" style="rounded=0;whiteSpace=wrap;html=1;" parent="1" vertex="1">
          <mxGeometry x="360" y="570" width="120" height="60" as="geometry" />
        </mxCell>
        <mxCell id="42OGbhjtQh606L3HK4yZ-19" style="edgeStyle=orthogonalEdgeStyle;rounded=0;orthogonalLoop=1;jettySize=auto;html=1;entryX=0;entryY=0.5;entryDx=0;entryDy=0;strokeColor=#000000;" parent="1" source="42OGbhjtQh606L3HK4yZ-20" target="42OGbhjtQh606L3HK4yZ-33" edge="1">
          <mxGeometry relative="1" as="geometry">
            <Array as="points">
              <mxPoint x="295" y="700" />
              <mxPoint x="295" y="790" />
            </Array>
          </mxGeometry>
        </mxCell>
        <mxCell id="42OGbhjtQh606L3HK4yZ-20" value="The user selects the correct option" style="rounded=0;whiteSpace=wrap;html=1;" parent="1" vertex="1">
          <mxGeometry x="160" y="650" width="120" height="60" as="geometry" />
        </mxCell>
        <mxCell id="42OGbhjtQh606L3HK4yZ-21" style="edgeStyle=orthogonalEdgeStyle;rounded=0;orthogonalLoop=1;jettySize=auto;html=1;strokeColor=#000000;" parent="1" source="42OGbhjtQh606L3HK4yZ-22" target="42OGbhjtQh606L3HK4yZ-31" edge="1">
          <mxGeometry relative="1" as="geometry">
            <Array as="points">
              <mxPoint x="345" y="760" />
              <mxPoint x="345" y="675" />
            </Array>
          </mxGeometry>
        </mxCell>
        <mxCell id="42OGbhjtQh606L3HK4yZ-22" value="&lt;div&gt;The user selects an incorrect option&lt;/div&gt;" style="rounded=0;whiteSpace=wrap;html=1;" parent="1" vertex="1">
          <mxGeometry x="160" y="750" width="120" height="60" as="geometry" />
        </mxCell>
        <mxCell id="42OGbhjtQh606L3HK4yZ-23" value="Roblox kick the user for inactivity" style="rounded=0;whiteSpace=wrap;html=1;" parent="1" vertex="1">
          <mxGeometry x="10" y="220" width="120" height="60" as="geometry" />
        </mxCell>
        <mxCell id="42OGbhjtQh606L3HK4yZ-24" style="edgeStyle=orthogonalEdgeStyle;rounded=0;orthogonalLoop=1;jettySize=auto;html=1;entryX=1;entryY=0.5;entryDx=0;entryDy=0;strokeColor=#000000;" parent="1" source="42OGbhjtQh606L3HK4yZ-25" target="42OGbhjtQh606L3HK4yZ-23" edge="1">
          <mxGeometry relative="1" as="geometry" />
        </mxCell>
        <mxCell id="42OGbhjtQh606L3HK4yZ-25" value="The user refuses to select the dialog" style="rounded=0;whiteSpace=wrap;html=1;" parent="1" vertex="1">
          <mxGeometry x="160" y="255" width="120" height="60" as="geometry" />
        </mxCell>
        <mxCell id="42OGbhjtQh606L3HK4yZ-26" style="edgeStyle=orthogonalEdgeStyle;rounded=0;orthogonalLoop=1;jettySize=auto;html=1;entryX=0.5;entryY=1;entryDx=0;entryDy=0;strokeColor=#000000;" parent="1" source="42OGbhjtQh606L3HK4yZ-27" target="42OGbhjtQh606L3HK4yZ-23" edge="1">
          <mxGeometry relative="1" as="geometry" />
        </mxCell>
        <mxCell id="42OGbhjtQh606L3HK4yZ-27" value="The user refuses to select a role" style="rounded=0;whiteSpace=wrap;html=1;" parent="1" vertex="1">
          <mxGeometry x="160" y="370" width="120" height="60" as="geometry" />
        </mxCell>
        <mxCell id="42OGbhjtQh606L3HK4yZ-28" style="edgeStyle=orthogonalEdgeStyle;rounded=0;orthogonalLoop=1;jettySize=auto;html=1;strokeColor=#000000;" parent="1" source="42OGbhjtQh606L3HK4yZ-29" target="42OGbhjtQh606L3HK4yZ-31" edge="1">
          <mxGeometry relative="1" as="geometry">
            <Array as="points">
              <mxPoint x="345" y="610" />
              <mxPoint x="345" y="675" />
            </Array>
          </mxGeometry>
        </mxCell>
        <mxCell id="42OGbhjtQh606L3HK4yZ-29" value="The user does not select an option" style="rounded=0;whiteSpace=wrap;html=1;" parent="1" vertex="1">
          <mxGeometry x="160" y="560" width="120" height="60" as="geometry" />
        </mxCell>
        <mxCell id="42OGbhjtQh606L3HK4yZ-30" style="edgeStyle=orthogonalEdgeStyle;rounded=0;orthogonalLoop=1;jettySize=auto;html=1;entryX=1;entryY=0.5;entryDx=0;entryDy=0;strokeColor=#000000;" parent="1" source="42OGbhjtQh606L3HK4yZ-31" target="42OGbhjtQh606L3HK4yZ-18" edge="1">
          <mxGeometry relative="1" as="geometry">
            <Array as="points">
              <mxPoint x="500" y="695" />
              <mxPoint x="500" y="600" />
            </Array>
          </mxGeometry>
        </mxCell>
        <mxCell id="42OGbhjtQh606L3HK4yZ-31" value="Depending on the severity of the failure, the server will either crash the aircraft, or have &quot;another ATC member&quot; correc the error and move on" style="rounded=0;whiteSpace=wrap;html=1;" parent="1" vertex="1">
          <mxGeometry x="360" y="640" width="120" height="110" as="geometry" />
        </mxCell>
        <mxCell id="42OGbhjtQh606L3HK4yZ-32" style="edgeStyle=orthogonalEdgeStyle;rounded=0;orthogonalLoop=1;jettySize=auto;html=1;entryX=1;entryY=0.5;entryDx=0;entryDy=0;strokeColor=#000000;" parent="1" source="42OGbhjtQh606L3HK4yZ-33" target="42OGbhjtQh606L3HK4yZ-18" edge="1">
          <mxGeometry relative="1" as="geometry">
            <Array as="points">
              <mxPoint x="500" y="790" />
              <mxPoint x="500" y="600" />
            </Array>
          </mxGeometry>
        </mxCell>
        <mxCell id="42OGbhjtQh606L3HK4yZ-33" value="The flow of the aircraft continues" style="rounded=0;whiteSpace=wrap;html=1;" parent="1" vertex="1">
          <mxGeometry x="360" y="760" width="120" height="60" as="geometry" />
        </mxCell>
        <mxCell id="42OGbhjtQh606L3HK4yZ-34" value="" style="endArrow=classic;html=1;rounded=0;entryX=0.5;entryY=0;entryDx=0;entryDy=0;strokeColor=#000000;" parent="1" source="42OGbhjtQh606L3HK4yZ-35" target="42OGbhjtQh606L3HK4yZ-2" edge="1">
          <mxGeometry width="50" height="50" relative="1" as="geometry">
            <mxPoint x="220" y="60" as="sourcePoint" />
            <mxPoint x="590" y="400" as="targetPoint" />
          </mxGeometry>
        </mxCell>
        <mxCell id="42OGbhjtQh606L3HK4yZ-35" value="Entry Point" style="text;html=1;align=center;verticalAlign=middle;resizable=0;points=[];autosize=1;strokeColor=#000000;fillColor=#18141d;" parent="1" vertex="1">
          <mxGeometry x="180" y="18" width="80" height="30" as="geometry" />
        </mxCell>
        <mxCell id="42OGbhjtQh606L3HK4yZ-37" style="edgeStyle=orthogonalEdgeStyle;rounded=0;orthogonalLoop=1;jettySize=auto;html=1;entryX=0;entryY=0.5;entryDx=0;entryDy=0;strokeColor=#0D0D0D;" parent="1" source="42OGbhjtQh606L3HK4yZ-40" target="42OGbhjtQh606L3HK4yZ-43" edge="1">
          <mxGeometry relative="1" as="geometry" />
        </mxCell>
        <mxCell id="42OGbhjtQh606L3HK4yZ-38" style="edgeStyle=orthogonalEdgeStyle;rounded=0;orthogonalLoop=1;jettySize=auto;html=1;entryX=0;entryY=0;entryDx=0;entryDy=0;exitX=1;exitY=1;exitDx=0;exitDy=0;strokeColor=#0D0D0D;" parent="1" source="42OGbhjtQh606L3HK4yZ-40" target="42OGbhjtQh606L3HK4yZ-47" edge="1">
          <mxGeometry relative="1" as="geometry">
            <Array as="points">
              <mxPoint x="725" y="540" />
              <mxPoint x="765" y="540" />
            </Array>
          </mxGeometry>
        </mxCell>
        <mxCell id="42OGbhjtQh606L3HK4yZ-39" style="edgeStyle=orthogonalEdgeStyle;rounded=0;orthogonalLoop=1;jettySize=auto;html=1;entryX=0.5;entryY=0;entryDx=0;entryDy=0;strokeColor=#0D0D0D;" parent="1" source="42OGbhjtQh606L3HK4yZ-40" target="42OGbhjtQh606L3HK4yZ-45" edge="1">
          <mxGeometry relative="1" as="geometry" />
        </mxCell>
        <mxCell id="42OGbhjtQh606L3HK4yZ-40" value="User Inputs" style="rounded=0;whiteSpace=wrap;html=1;" parent="1" vertex="1">
          <mxGeometry x="605" y="470" width="120" height="60" as="geometry" />
        </mxCell>
        <mxCell id="42OGbhjtQh606L3HK4yZ-41" style="edgeStyle=orthogonalEdgeStyle;rounded=0;orthogonalLoop=1;jettySize=auto;html=1;entryX=1;entryY=0;entryDx=0;entryDy=0;exitX=0;exitY=1;exitDx=0;exitDy=0;strokeColor=#0D0D0D;" parent="1" source="42OGbhjtQh606L3HK4yZ-43" target="42OGbhjtQh606L3HK4yZ-45" edge="1">
          <mxGeometry relative="1" as="geometry">
            <Array as="points">
              <mxPoint x="740" y="530" />
              <mxPoint x="740" y="550" />
              <mxPoint x="725" y="550" />
            </Array>
          </mxGeometry>
        </mxCell>
        <mxCell id="42OGbhjtQh606L3HK4yZ-42" style="edgeStyle=orthogonalEdgeStyle;rounded=0;orthogonalLoop=1;jettySize=auto;html=1;entryX=0.5;entryY=0;entryDx=0;entryDy=0;strokeColor=#0D0D0D;" parent="1" source="42OGbhjtQh606L3HK4yZ-43" target="42OGbhjtQh606L3HK4yZ-47" edge="1">
          <mxGeometry relative="1" as="geometry" />
        </mxCell>
        <mxCell id="42OGbhjtQh606L3HK4yZ-43" value="Client Local Code" style="rounded=0;whiteSpace=wrap;html=1;" parent="1" vertex="1">
          <mxGeometry x="765" y="470" width="120" height="60" as="geometry" />
        </mxCell>
        <mxCell id="42OGbhjtQh606L3HK4yZ-44" style="edgeStyle=orthogonalEdgeStyle;rounded=0;orthogonalLoop=1;jettySize=auto;html=1;entryX=0;entryY=1;entryDx=0;entryDy=0;exitX=1;exitY=0;exitDx=0;exitDy=0;strokeColor=#0D0D0D;" parent="1" source="42OGbhjtQh606L3HK4yZ-45" target="42OGbhjtQh606L3HK4yZ-43" edge="1">
          <mxGeometry relative="1" as="geometry">
            <Array as="points">
              <mxPoint x="725" y="550" />
              <mxPoint x="740" y="550" />
              <mxPoint x="740" y="530" />
            </Array>
          </mxGeometry>
        </mxCell>
        <mxCell id="42OGbhjtQh606L3HK4yZ-45" value="User GUI" style="rounded=0;whiteSpace=wrap;html=1;" parent="1" vertex="1">
          <mxGeometry x="605" y="560" width="120" height="60" as="geometry" />
        </mxCell>
        <mxCell id="42OGbhjtQh606L3HK4yZ-46" style="edgeStyle=orthogonalEdgeStyle;rounded=0;orthogonalLoop=1;jettySize=auto;html=1;entryX=1;entryY=0.5;entryDx=0;entryDy=0;strokeColor=#0D0D0D;" parent="1" source="42OGbhjtQh606L3HK4yZ-47" target="42OGbhjtQh606L3HK4yZ-45" edge="1">
          <mxGeometry relative="1" as="geometry" />
        </mxCell>
        <mxCell id="42OGbhjtQh606L3HK4yZ-47" value="Client Remote Functions" style="rounded=0;whiteSpace=wrap;html=1;" parent="1" vertex="1">
          <mxGeometry x="765" y="560" width="120" height="60" as="geometry" />
        </mxCell>
        <mxCell id="42OGbhjtQh606L3HK4yZ-48" value="Roblox Player" style="rounded=0;whiteSpace=wrap;html=1;" parent="1" vertex="1">
          <mxGeometry x="685" y="430" width="105" height="30" as="geometry" />
        </mxCell>
        <mxCell id="42OGbhjtQh606L3HK4yZ-50" value="Object States" style="rounded=0;whiteSpace=wrap;html=1;" parent="1" vertex="1">
          <mxGeometry x="985" y="470" width="120" height="60" as="geometry" />
        </mxCell>
        <mxCell id="42OGbhjtQh606L3HK4yZ-51" style="edgeStyle=orthogonalEdgeStyle;rounded=0;orthogonalLoop=1;jettySize=auto;html=1;entryX=1;entryY=0.5;entryDx=0;entryDy=0;strokeColor=#0D0D0D;" parent="1" source="42OGbhjtQh606L3HK4yZ-53" target="42OGbhjtQh606L3HK4yZ-43" edge="1">
          <mxGeometry relative="1" as="geometry">
            <Array as="points">
              <mxPoint x="940" y="590" />
              <mxPoint x="940" y="500" />
            </Array>
          </mxGeometry>
        </mxCell>
        <mxCell id="42OGbhjtQh606L3HK4yZ-52" style="edgeStyle=orthogonalEdgeStyle;rounded=0;orthogonalLoop=1;jettySize=auto;html=1;strokeColor=#0D0D0D;" parent="1" source="42OGbhjtQh606L3HK4yZ-53" target="42OGbhjtQh606L3HK4yZ-50" edge="1">
          <mxGeometry relative="1" as="geometry" />
        </mxCell>
        <mxCell id="42OGbhjtQh606L3HK4yZ-53" value="Server Remote Functions" style="rounded=0;whiteSpace=wrap;html=1;" parent="1" vertex="1">
          <mxGeometry x="985" y="560" width="120" height="60" as="geometry" />
        </mxCell>
        <mxCell id="42OGbhjtQh606L3HK4yZ-54" style="edgeStyle=orthogonalEdgeStyle;rounded=0;orthogonalLoop=1;jettySize=auto;html=1;entryX=0.5;entryY=1;entryDx=0;entryDy=0;strokeColor=#0D0D0D;" parent="1" source="42OGbhjtQh606L3HK4yZ-57" target="42OGbhjtQh606L3HK4yZ-47" edge="1">
          <mxGeometry relative="1" as="geometry">
            <Array as="points">
              <mxPoint x="1205" y="640" />
              <mxPoint x="825" y="640" />
            </Array>
          </mxGeometry>
        </mxCell>
        <mxCell id="42OGbhjtQh606L3HK4yZ-55" style="edgeStyle=orthogonalEdgeStyle;rounded=0;orthogonalLoop=1;jettySize=auto;html=1;entryX=1;entryY=1;entryDx=0;entryDy=0;strokeColor=#0D0D0D;" parent="1" source="42OGbhjtQh606L3HK4yZ-57" target="42OGbhjtQh606L3HK4yZ-50" edge="1">
          <mxGeometry relative="1" as="geometry">
            <Array as="points">
              <mxPoint x="1150" y="550" />
              <mxPoint x="1105" y="550" />
            </Array>
          </mxGeometry>
        </mxCell>
        <mxCell id="42OGbhjtQh606L3HK4yZ-56" style="edgeStyle=orthogonalEdgeStyle;rounded=0;orthogonalLoop=1;jettySize=auto;html=1;strokeColor=#0D0D0D;" parent="1" source="42OGbhjtQh606L3HK4yZ-57" target="42OGbhjtQh606L3HK4yZ-53" edge="1">
          <mxGeometry relative="1" as="geometry" />
        </mxCell>
        <mxCell id="42OGbhjtQh606L3HK4yZ-57" value="Server Local Code" style="rounded=0;whiteSpace=wrap;html=1;" parent="1" vertex="1">
          <mxGeometry x="1145" y="560" width="120" height="60" as="geometry" />
        </mxCell>
        <mxCell id="42OGbhjtQh606L3HK4yZ-58" value="&lt;div&gt;Roblox Server&lt;/div&gt;" style="rounded=0;whiteSpace=wrap;html=1;" parent="1" vertex="1">
          <mxGeometry x="1065" y="430" width="105" height="30" as="geometry" />
        </mxCell>
        <mxCell id="42OGbhjtQh606L3HK4yZ-59" style="edgeStyle=orthogonalEdgeStyle;rounded=0;orthogonalLoop=1;jettySize=auto;html=1;entryX=0.5;entryY=1;entryDx=0;entryDy=0;strokeColor=#0D0D0D;" parent="1" edge="1">
          <mxGeometry relative="1" as="geometry">
            <Array as="points">
              <mxPoint x="825" y="645" />
              <mxPoint x="1205" y="645" />
            </Array>
            <mxPoint x="825" y="624.9999999999998" as="sourcePoint" />
            <mxPoint x="1205" y="624.9999999999998" as="targetPoint" />
          </mxGeometry>
        </mxCell>
        <mxCell id="42OGbhjtQh606L3HK4yZ-60" style="edgeStyle=orthogonalEdgeStyle;rounded=0;orthogonalLoop=1;jettySize=auto;html=1;entryX=0;entryY=0.5;entryDx=0;entryDy=0;strokeColor=#0D0D0D;" parent="1" source="42OGbhjtQh606L3HK4yZ-43" target="42OGbhjtQh606L3HK4yZ-53" edge="1">
          <mxGeometry relative="1" as="geometry">
            <Array as="points">
              <mxPoint x="940" y="500" />
              <mxPoint x="940" y="590" />
            </Array>
          </mxGeometry>
        </mxCell>
        <mxCell id="42OGbhjtQh606L3HK4yZ-61" style="edgeStyle=orthogonalEdgeStyle;rounded=0;orthogonalLoop=1;jettySize=auto;html=1;entryX=0.5;entryY=0;entryDx=0;entryDy=0;strokeColor=#0D0D0D;" parent="1" source="42OGbhjtQh606L3HK4yZ-63" target="42OGbhjtQh606L3HK4yZ-43" edge="1">
          <mxGeometry relative="1" as="geometry">
            <Array as="points">
              <mxPoint x="825" y="360" />
            </Array>
          </mxGeometry>
        </mxCell>
        <mxCell id="42OGbhjtQh606L3HK4yZ-62" style="edgeStyle=orthogonalEdgeStyle;rounded=0;orthogonalLoop=1;jettySize=auto;html=1;entryX=0.5;entryY=0;entryDx=0;entryDy=0;strokeColor=#0D0D0D;" parent="1" source="42OGbhjtQh606L3HK4yZ-63" target="42OGbhjtQh606L3HK4yZ-57" edge="1">
          <mxGeometry relative="1" as="geometry" />
        </mxCell>
        <mxCell id="42OGbhjtQh606L3HK4yZ-63" value="&lt;div&gt;Shared Scripts&lt;/div&gt;" style="rounded=0;whiteSpace=wrap;html=1;" parent="1" vertex="1">
          <mxGeometry x="880" y="330" width="120" height="60" as="geometry" />
        </mxCell>
      </root>
    </mxGraphModel>
  </diagram>
</mxfile>
